<svg width="468" height="185" viewBox="0 0 468 185" fill="none" xmlns="http://www.w3.org/2000/svg">
<path d="M233.562 112.494C227.717 108.484 225.5 102.328 224.705 100.309C222.838 95.5697 223.523 91.9603 220.919 87.4624C219.398 84.8341 217.684 83.3717 216.915 82.7693C215.986 82.0424 214.978 81.4243 213.908 80.9271C212.635 80.3028 211.192 80.1089 209.799 80.3748C208.405 80.6407 207.136 81.3519 206.184 82.4007C205.232 83.4496 204.649 84.779 204.522 86.1879C204.396 87.5968 204.733 89.0084 205.483 90.2093C206.232 91.4101 207.354 92.3348 208.678 92.8434C210.002 93.352 211.456 93.4168 212.82 93.0281C214.185 92.6394 215.385 91.8183 216.239 90.689C217.094 89.5597 217.556 88.1837 217.556 86.7692C217.555 86.3943 217.523 86.0201 217.459 85.6508C217.869 86.5223 218.748 88.7105 219.024 92.9763C219.106 94.1352 219.115 95.2982 219.049 96.4581C218.845 99.7659 218.81 101.222 218.806 102.191C218.788 106.2 221.976 109.503 223.393 110.972C230.06 117.883 241.067 116.037 242.006 115.859C239.912 115.507 236.733 114.67 233.562 112.494Z" fill="url(#paint0_linear_3675_13776)"/>
<path d="M250.062 107.466C249.853 107.023 249.618 106.593 249.359 106.177C244.984 99.1866 235.601 99.386 235.235 94.9029C235.153 93.9059 235.536 92.9299 236.278 91.9423C232.418 96.6555 230.95 101.994 232.457 106.408C233.286 108.834 235.299 111.812 237.981 112.957C238.232 113.053 238.48 113.138 238.727 113.219C241.378 114.088 243.837 114.256 246.447 116.484C248.563 118.292 249.654 120.493 250.232 122C251.432 117.832 252.326 112.225 250.062 107.466Z" fill="url(#paint1_linear_3675_13776)"/>
<path d="M261.301 59C259.899 60.7699 258.286 62.3623 256.496 63.7416C251.788 67.3627 247.902 67.8776 243.367 69.6227C239.159 71.2392 232.509 73.802 228.685 79.4689C224.039 86.3524 224.884 95.8673 228.05 102.404C229.291 104.96 231.901 110.34 237.364 112.71C237.569 112.8 237.772 112.881 237.974 112.958C235.292 111.813 233.28 108.843 232.451 106.409C230.944 101.995 232.412 96.6565 236.271 91.9434C236.531 91.6021 236.811 91.2772 237.111 90.9706C238.923 89.0946 241.873 87.1469 245.241 84.9238C251.467 80.8152 253.628 81.0938 256.389 78.5489C257.481 77.5444 258.574 76.1812 259.466 74.2789C260.992 71.0461 261.931 66.2559 261.301 59Z" fill="url(#paint2_linear_3675_13776)"/>
<path d="M261.298 59C261.476 70.0131 258.246 75.2232 255.213 77.9464C252.695 80.2064 251.497 79.6894 242.936 85.1559C237.029 88.9268 234.999 90.8302 233.423 93.3857C232.47 94.9293 230.761 97.7696 230.851 101.708C230.875 102.779 231.034 106.959 234.248 110.321C235.159 111.271 236.221 112.066 237.391 112.672C235.006 111.371 233.226 108.662 232.46 106.412C230.953 101.998 232.421 96.6597 236.28 91.9465C236.54 91.6053 236.82 91.2804 237.12 90.9737C238.931 89.0978 241.882 87.1501 245.25 84.927C251.476 80.8184 253.637 81.097 256.398 78.5521C257.489 77.5476 258.583 76.1844 259.475 74.2821C260.989 71.0461 261.928 66.2559 261.298 59Z" fill="url(#paint3_linear_3675_13776)"/>
<path d="M82.2284 182V142.64H0.148438V115.28L80.3084 3.2H114.388V115.28H140.548V142.64H114.388V182H82.2284ZM24.1484 127.04L18.3884 115.28H82.2284V28.88L90.6284 31.52L24.1484 127.04Z" fill="url(#paint4_linear_3675_13776)"/>
<path d="M233.5 184.88C219.26 184.88 206.78 181.04 196.06 173.36C185.34 165.68 176.94 154.88 170.86 140.96C164.94 127.04 161.98 110.88 161.98 92.48C161.98 73.92 164.94 57.76 170.86 44C176.78 30.24 185.1 19.52 195.82 11.84C206.54 4.16001 219.02 0.320007 233.26 0.320007C247.82 0.320007 260.38 4.16001 270.94 11.84C281.66 19.52 290.06 30.32 296.14 44.24C302.22 58 305.26 74.08 305.26 92.48C305.26 110.88 302.22 127.04 296.14 140.96C290.22 154.72 281.9 165.52 271.18 173.36C260.46 181.04 247.9 184.88 233.5 184.88ZM233.74 155.12C241.9 155.12 248.86 152.64 254.62 147.68C260.38 142.56 264.78 135.36 267.82 126.08C271.02 116.64 272.62 105.44 272.62 92.48C272.62 79.52 271.02 68.4 267.82 59.12C264.78 49.68 260.3 42.48 254.38 37.52C248.62 32.56 241.58 30.08 233.26 30.08C225.26 30.08 218.38 32.56 212.62 37.52C206.86 42.48 202.38 49.68 199.18 59.12C196.14 68.4 194.62 79.52 194.62 92.48C194.62 105.28 196.14 116.4 199.18 125.84C202.38 135.12 206.86 142.32 212.62 147.44C218.54 152.56 225.58 155.12 233.74 155.12Z" fill="url(#paint5_linear_3675_13776)"/>
<path d="M409.182 182V142.64H327.102V115.28L407.262 3.2H441.342V115.28H467.502V142.64H441.342V182H409.182ZM351.102 127.04L345.342 115.28H409.182V28.88L417.582 31.52L351.102 127.04Z" fill="url(#paint6_linear_3675_13776)"/>
<defs>
<linearGradient id="paint0_linear_3675_13776" x1="204.496" y1="98.2362" x2="242.006" y2="98.2362" gradientUnits="userSpaceOnUse">
<stop stop-color="#0F18ED"/>
<stop offset="1" stop-color="#E70FEB"/>
</linearGradient>
<linearGradient id="paint1_linear_3675_13776" x1="231.875" y1="106.971" x2="251.46" y2="106.971" gradientUnits="userSpaceOnUse">
<stop stop-color="#0F18ED"/>
<stop offset="1" stop-color="#E70FEB"/>
</linearGradient>
<linearGradient id="paint2_linear_3675_13776" x1="225.438" y1="85.9789" x2="261.5" y2="85.9789" gradientUnits="userSpaceOnUse">
<stop stop-color="#0F18ED"/>
<stop offset="1" stop-color="#E70FEB"/>
</linearGradient>
<linearGradient id="paint3_linear_3675_13776" x1="230.848" y1="85.8359" x2="261.497" y2="85.8359" gradientUnits="userSpaceOnUse">
<stop stop-color="#0F18ED"/>
<stop offset="1" stop-color="#E70FEB"/>
</linearGradient>
<linearGradient id="paint4_linear_3675_13776" x1="0.148439" y1="92.6" x2="467.502" y2="92.6" gradientUnits="userSpaceOnUse">
<stop stop-color="#0F18ED"/>
<stop offset="1" stop-color="#E70FEB"/>
</linearGradient>
<linearGradient id="paint5_linear_3675_13776" x1="0.148439" y1="92.6" x2="467.502" y2="92.6" gradientUnits="userSpaceOnUse">
<stop stop-color="#0F18ED"/>
<stop offset="1" stop-color="#E70FEB"/>
</linearGradient>
<linearGradient id="paint6_linear_3675_13776" x1="0.148439" y1="92.6" x2="467.502" y2="92.6" gradientUnits="userSpaceOnUse">
<stop stop-color="#0F18ED"/>
<stop offset="1" stop-color="#E70FEB"/>
</linearGradient>
</defs>
</svg>
