<svg width="118" height="85" viewBox="0 0 118 85" fill="none" xmlns="http://www.w3.org/2000/svg">
<g filter="url(#filter0_d_2981_8777)">
<g opacity="0.5" filter="url(#filter1_f_2981_8777)">
<circle cx="30" cy="30" r="30" transform="matrix(0 -1 -1 0 89 85)" fill="url(#paint0_linear_2981_8777)"/>
</g>
<circle cx="30" cy="30" r="30" transform="matrix(0 -1 -1 0 89 85)" fill="url(#paint1_linear_2981_8777)"/>
<path d="M58.3237 57.1815L58.9876 57.1843C61.7469 57.1843 64.2625 57.0227 65.9024 56.7793L66.9222 56.5661C67.4623 56.4474 68.0772 56.2915 68.3912 56.1289C69.5395 55.5337 70.25 54.3698 70.25 53.1241V53.0157C70.2232 52.2037 69.5106 50.4978 69.4858 50.4978C68.3341 47.7528 64.858 42.4571 62.3799 40.0112L61.6359 39.3005C61.4343 39.1144 61.1956 38.9053 61.0096 38.7754C60.4354 38.3418 59.7249 38.125 59.0145 38.125C58.2214 38.125 57.484 38.3684 56.8809 38.8286L56.0929 39.5589L55.9247 39.7225C53.5185 41.9418 49.584 47.7365 48.3799 50.7678L48.2045 51.2255C48.0071 51.7762 47.7717 52.5478 47.75 53.0157C47.75 53.6109 47.8884 54.1796 48.161 54.7216C48.5431 55.3987 49.1462 55.9386 49.8567 56.2373C50.3482 56.4275 51.8249 56.7261 51.8518 56.7261C53.3408 56.9999 55.6903 57.1587 58.3237 57.1815ZM59.0008 71.875C60.5726 71.875 61.8469 70.613 61.8469 69.0564L61.2335 62.1203C61.2335 60.8992 60.2338 59.9092 59.0008 59.9092C57.7657 59.9092 56.7682 60.8992 56.7682 62.1203L56.1548 69.0564C56.1548 70.613 57.4291 71.875 59.0008 71.875Z" fill="white"/>
</g>
<defs>
<filter id="filter0_d_2981_8777" x="0.875" y="0.625" width="116.25" height="116.25" filterUnits="userSpaceOnUse" color-interpolation-filters="sRGB">
<feFlood flood-opacity="0" result="BackgroundImageFix"/>
<feColorMatrix in="SourceAlpha" type="matrix" values="0 0 0 0 0 0 0 0 0 0 0 0 0 0 0 0 0 0 127 0" result="hardAlpha"/>
<feOffset dy="3.75"/>
<feGaussianBlur stdDeviation="14.0625"/>
<feComposite in2="hardAlpha" operator="out"/>
<feColorMatrix type="matrix" values="0 0 0 0 1 0 0 0 0 1 0 0 0 0 1 0 0 0 0.3 0"/>
<feBlend mode="normal" in2="BackgroundImageFix" result="effect1_dropShadow_2981_8777"/>
<feBlend mode="normal" in="SourceGraphic" in2="effect1_dropShadow_2981_8777" result="shape"/>
</filter>
<filter id="filter1_f_2981_8777" x="19" y="15" width="80" height="80" filterUnits="userSpaceOnUse" color-interpolation-filters="sRGB">
<feFlood flood-opacity="0" result="BackgroundImageFix"/>
<feBlend mode="normal" in="SourceGraphic" in2="BackgroundImageFix" result="shape"/>
<feGaussianBlur stdDeviation="5" result="effect1_foregroundBlur_2981_8777"/>
</filter>
<linearGradient id="paint0_linear_2981_8777" x1="2.23517e-07" y1="30" x2="60" y2="30" gradientUnits="userSpaceOnUse">
<stop stop-color="#0F18ED"/>
<stop offset="1" stop-color="#E70FEB"/>
</linearGradient>
<linearGradient id="paint1_linear_2981_8777" x1="2.23517e-07" y1="30" x2="60" y2="30" gradientUnits="userSpaceOnUse">
<stop stop-color="#0F18ED"/>
<stop offset="1" stop-color="#E70FEB"/>
</linearGradient>
</defs>
</svg>
