<svg width="37" height="37" viewBox="0 0 37 37" fill="none" xmlns="http://www.w3.org/2000/svg">
<path fill-rule="evenodd" clip-rule="evenodd" d="M18.7581 3.3714C10.4672 3.3714 3.75195 10.0867 3.75195 18.3776C3.75195 25.0178 8.04747 30.6264 14.0124 32.6147C14.7627 32.746 15.0441 32.2958 15.0441 31.9019C15.0441 31.5455 15.0253 30.3638 15.0253 29.107C11.255 29.801 10.2796 28.1879 9.97952 27.3438C9.8107 26.9123 9.07914 25.5805 8.44138 25.2241C7.91617 24.9428 7.16586 24.2487 8.42263 24.23C9.60436 24.2112 10.4485 25.3179 10.7298 25.7681C12.0804 28.0378 14.2375 27.4 15.1004 27.0061C15.2317 26.0307 15.6256 25.3742 16.057 24.999C12.7181 24.6239 9.22921 23.3296 9.22921 17.5897C9.22921 15.9578 9.8107 14.6073 10.7673 13.5568C10.6173 13.1817 10.0921 11.6436 10.9174 9.5802C10.9174 9.5802 12.1742 9.18629 15.0441 11.1183C16.2446 10.7807 17.5201 10.6119 18.7956 10.6119C20.0712 10.6119 21.3467 10.7807 22.5472 11.1183C25.4171 9.16753 26.6739 9.5802 26.6739 9.5802C27.4992 11.6436 26.974 13.1817 26.8239 13.5568C27.7806 14.6073 28.3621 15.9391 28.3621 17.5897C28.3621 23.3484 24.8544 24.6239 21.5155 24.999C22.0595 25.468 22.5284 26.3684 22.5284 27.7752C22.5284 29.7823 22.5097 31.3954 22.5097 31.9019C22.5097 32.2958 22.791 32.7647 23.5413 32.6147C26.5203 31.609 29.109 29.6944 30.9428 27.1405C32.7767 24.5865 33.7635 21.5217 33.7643 18.3776C33.7643 10.0867 27.049 3.3714 18.7581 3.3714Z" fill="#151515"/>
</svg>
