<svg width="37" height="36" viewBox="0 0 37 36" fill="none" xmlns="http://www.w3.org/2000/svg">
<path d="M10.3717 9.42857C10.3717 7.25289 12.1354 5.48915 14.3111 5.48915H18.2999V13.368H14.3111C12.1354 13.368 10.3717 11.6042 10.3717 9.42857Z" fill="url(#paint0_radial_2299_2205)" stroke="#4F5156" stroke-width="0.692593"/>
<path d="M10.3717 9.42857C10.3717 7.25289 12.1354 5.48915 14.3111 5.48915H18.2999V13.368H14.3111C12.1354 13.368 10.3717 11.6042 10.3717 9.42857Z" fill="url(#paint1_radial_2299_2205)" stroke="#4F5156" stroke-width="0.692593"/>
<path d="M26.9203 9.42857C26.9203 7.25289 25.1566 5.48915 22.9809 5.48915H18.9921V13.368H22.9809C25.1566 13.368 26.9203 11.6042 26.9203 9.42857Z" fill="url(#paint2_radial_2299_2205)" stroke="#4F5156" stroke-width="0.692593"/>
<path d="M26.9203 9.42857C26.9203 7.25289 25.1566 5.48915 22.9809 5.48915H18.9921V13.368H22.9809C25.1566 13.368 26.9203 11.6042 26.9203 9.42857Z" fill="url(#paint3_radial_2299_2205)" stroke="#4F5156" stroke-width="0.692593"/>
<path d="M26.9203 18C26.9203 15.8269 25.1345 14.0606 22.9562 14.0606C20.7779 14.0606 18.9921 15.8269 18.9921 18C18.9921 20.1731 20.7779 21.9394 22.9562 21.9394C25.1345 21.9394 26.9203 20.1731 26.9203 18Z" fill="url(#paint4_radial_2299_2205)" stroke="#4F5156" stroke-width="0.692593"/>
<path d="M26.9203 18C26.9203 15.8269 25.1345 14.0606 22.9562 14.0606C20.7779 14.0606 18.9921 15.8269 18.9921 18C18.9921 20.1731 20.7779 21.9394 22.9562 21.9394C25.1345 21.9394 26.9203 20.1731 26.9203 18Z" fill="url(#paint5_radial_2299_2205)" stroke="#4F5156" stroke-width="0.692593"/>
<path d="M10.3717 18C10.3717 15.8243 12.1354 14.0606 14.3111 14.0606H18.2999V21.9394H14.3111C12.1354 21.9394 10.3717 20.1757 10.3717 18Z" fill="url(#paint6_radial_2299_2205)" stroke="#4F5156" stroke-width="0.692593"/>
<path d="M10.3717 18C10.3717 15.8243 12.1354 14.0606 14.3111 14.0606H18.2999V21.9394H14.3111C12.1354 21.9394 10.3717 20.1757 10.3717 18Z" fill="url(#paint7_radial_2299_2205)" stroke="#4F5156" stroke-width="0.692593"/>
<path d="M10.3717 26.5714C10.3717 24.3958 12.1354 22.632 14.3111 22.632H18.2999V26.5467C18.2999 28.7348 16.514 30.5109 14.3234 30.5109C12.1464 30.5109 10.3717 28.7458 10.3717 26.5714Z" fill="url(#paint8_radial_2299_2205)" stroke="#4F5156" stroke-width="0.692593"/>
<path d="M10.3717 26.5714C10.3717 24.3958 12.1354 22.632 14.3111 22.632H18.2999V26.5467C18.2999 28.7348 16.514 30.5109 14.3234 30.5109C12.1464 30.5109 10.3717 28.7458 10.3717 26.5714Z" fill="url(#paint9_radial_2299_2205)" stroke="#4F5156" stroke-width="0.692593"/>
<g filter="url(#filter0_b_2299_2205)">
<mask id="path-11-inside-1_2299_2205" fill="white">
<path d="M0.542969 12.4667C0.542969 5.58152 6.12449 0 13.0096 0H24.2837C31.1689 0 36.7504 5.58152 36.7504 12.4667V23.5333C36.7504 30.4185 31.1689 36 24.2837 36H13.0096C6.12449 36 0.542969 30.4185 0.542969 23.5333V12.4667Z"/>
</mask>
<path d="M0.542969 12.4667C0.542969 5.58152 6.12449 0 13.0096 0H24.2837C31.1689 0 36.7504 5.58152 36.7504 12.4667V23.5333C36.7504 30.4185 31.1689 36 24.2837 36H13.0096C6.12449 36 0.542969 30.4185 0.542969 23.5333V12.4667Z" fill="url(#paint10_linear_2299_2205)"/>
<path d="M0.542969 12.4667C0.542969 5.58152 6.12449 0 13.0096 0H24.2837C31.1689 0 36.7504 5.58152 36.7504 12.4667V23.5333C36.7504 30.4185 31.1689 36 24.2837 36H13.0096C6.12449 36 0.542969 30.4185 0.542969 23.5333V12.4667Z" fill="url(#paint11_linear_2299_2205)" fill-opacity="0.9"/>
<path d="M0.542969 12.4667C0.542969 5.19901 6.43457 -0.692593 13.7022 -0.692593H23.5911C30.8588 -0.692593 36.7504 5.19901 36.7504 12.4667C36.7504 5.96403 31.1689 0.692593 24.2837 0.692593H13.0096C6.12449 0.692593 0.542969 5.96403 0.542969 12.4667ZM36.7504 36H0.542969H36.7504ZM0.542969 36V0V36ZM36.7504 0V36V0Z" fill="#4F5156" mask="url(#path-11-inside-1_2299_2205)"/>
</g>
<path d="M10.0254 9.42857C10.0254 7.06163 11.9442 5.14285 14.3111 5.14285H18.6462V13.7143H14.3111C11.9442 13.7143 10.0254 11.7955 10.0254 9.42857Z" fill="url(#paint12_radial_2299_2205)"/>
<path d="M10.0254 9.42857C10.0254 7.06163 11.9442 5.14285 14.3111 5.14285H18.6462V13.7143H14.3111C11.9442 13.7143 10.0254 11.7955 10.0254 9.42857Z" fill="url(#paint13_radial_2299_2205)"/>
<path d="M27.2666 9.42857C27.2666 7.06163 25.3478 5.14285 22.9809 5.14285H18.6458V13.7143H22.9809C25.3478 13.7143 27.2666 11.7955 27.2666 9.42857Z" fill="url(#paint14_radial_2299_2205)"/>
<path d="M27.2666 9.42857C27.2666 7.06163 25.3478 5.14285 22.9809 5.14285H18.6458V13.7143H22.9809C25.3478 13.7143 27.2666 11.7955 27.2666 9.42857Z" fill="url(#paint15_radial_2299_2205)"/>
<path d="M27.2666 18C27.2666 15.6331 25.3231 13.7143 22.9562 13.7143C20.5893 13.7143 18.6458 15.6331 18.6458 18C18.6458 20.3669 20.5893 22.2857 22.9562 22.2857C25.3231 22.2857 27.2666 20.3669 27.2666 18Z" fill="url(#paint16_radial_2299_2205)"/>
<path d="M27.2666 18C27.2666 15.6331 25.3231 13.7143 22.9562 13.7143C20.5893 13.7143 18.6458 15.6331 18.6458 18C18.6458 20.3669 20.5893 22.2857 22.9562 22.2857C25.3231 22.2857 27.2666 20.3669 27.2666 18Z" fill="url(#paint17_radial_2299_2205)"/>
<path d="M10.0254 18C10.0254 15.6331 11.9442 13.7143 14.3111 13.7143H18.6462V22.2857H14.3111C11.9442 22.2857 10.0254 20.3669 10.0254 18Z" fill="url(#paint18_radial_2299_2205)"/>
<path d="M10.0254 18C10.0254 15.6331 11.9442 13.7143 14.3111 13.7143H18.6462V22.2857H14.3111C11.9442 22.2857 10.0254 20.3669 10.0254 18Z" fill="url(#paint19_radial_2299_2205)"/>
<path d="M10.0254 26.5714C10.0254 24.2045 11.9442 22.2857 14.3111 22.2857H18.6462V26.5467C18.6462 28.9273 16.704 30.8571 14.3234 30.8571C11.9565 30.8571 10.0254 28.9384 10.0254 26.5714Z" fill="url(#paint20_radial_2299_2205)"/>
<path d="M10.0254 26.5714C10.0254 24.2045 11.9442 22.2857 14.3111 22.2857H18.6462V26.5467C18.6462 28.9273 16.704 30.8571 14.3234 30.8571C11.9565 30.8571 10.0254 28.9384 10.0254 26.5714Z" fill="url(#paint21_radial_2299_2205)"/>
<defs>
<filter id="filter0_b_2299_2205" x="-10.5385" y="-11.0815" width="58.37" height="58.163" filterUnits="userSpaceOnUse" color-interpolation-filters="sRGB">
<feFlood flood-opacity="0" result="BackgroundImageFix"/>
<feGaussianBlur in="BackgroundImageFix" stdDeviation="5.54074"/>
<feComposite in2="SourceAlpha" operator="in" result="effect1_backgroundBlur_2299_2205"/>
<feBlend mode="normal" in="SourceGraphic" in2="effect1_backgroundBlur_2299_2205" result="shape"/>
</filter>
<radialGradient id="paint0_radial_2299_2205" cx="0" cy="0" r="1" gradientUnits="userSpaceOnUse" gradientTransform="translate(14.3358 9.42857) rotate(44.8354) scale(6.0784 6.0783)">
<stop stop-color="#FF6342"/>
<stop offset="1" stop-color="#F34628"/>
</radialGradient>
<radialGradient id="paint1_radial_2299_2205" cx="0" cy="0" r="1" gradientUnits="userSpaceOnUse" gradientTransform="translate(14.3358 9.42857) rotate(44.8354) scale(6.0784 6.0783)">
<stop stop-color="#FF6342"/>
<stop offset="1" stop-color="#F34628"/>
</radialGradient>
<radialGradient id="paint2_radial_2299_2205" cx="0" cy="0" r="1" gradientUnits="userSpaceOnUse" gradientTransform="translate(22.9562 9.42857) rotate(133.696) scale(5.92751 5.92916)">
<stop stop-color="#FF867C"/>
<stop offset="1" stop-color="#FF756C"/>
</radialGradient>
<radialGradient id="paint3_radial_2299_2205" cx="0" cy="0" r="1" gradientUnits="userSpaceOnUse" gradientTransform="translate(22.9562 9.42857) rotate(133.696) scale(5.92751 5.92916)">
<stop stop-color="#FF867C"/>
<stop offset="1" stop-color="#FF756C"/>
</radialGradient>
<radialGradient id="paint4_radial_2299_2205" cx="0" cy="0" r="1" gradientUnits="userSpaceOnUse" gradientTransform="translate(22.9562 18) rotate(90) scale(4.28571 4.31041)">
<stop stop-color="#1FC3F6"/>
<stop offset="1" stop-color="#41CDFB"/>
</radialGradient>
<radialGradient id="paint5_radial_2299_2205" cx="0" cy="0" r="1" gradientUnits="userSpaceOnUse" gradientTransform="translate(22.9562 18) rotate(90) scale(4.28571 4.31041)">
<stop stop-color="#1FC3F6"/>
<stop offset="1" stop-color="#41CDFB"/>
</radialGradient>
<radialGradient id="paint6_radial_2299_2205" cx="0" cy="0" r="1" gradientUnits="userSpaceOnUse" gradientTransform="translate(14.3358 18) rotate(90) scale(4.28571 4.31041)">
<stop stop-color="#AC64F7"/>
<stop offset="1" stop-color="#A155F2"/>
</radialGradient>
<radialGradient id="paint7_radial_2299_2205" cx="0" cy="0" r="1" gradientUnits="userSpaceOnUse" gradientTransform="translate(14.3358 18) rotate(90) scale(4.28571 4.31041)">
<stop stop-color="#AC64F7"/>
<stop offset="1" stop-color="#A155F2"/>
</radialGradient>
<radialGradient id="paint8_radial_2299_2205" cx="0" cy="0" r="1" gradientUnits="userSpaceOnUse" gradientTransform="translate(14.3358 26.5714) rotate(90) scale(4.28571 4.31041)">
<stop stop-color="#00DD8C"/>
<stop offset="1" stop-color="#00C984"/>
</radialGradient>
<radialGradient id="paint9_radial_2299_2205" cx="0" cy="0" r="1" gradientUnits="userSpaceOnUse" gradientTransform="translate(14.3358 26.5714) rotate(90) scale(4.28571 4.31041)">
<stop stop-color="#00DD8C"/>
<stop offset="1" stop-color="#00C984"/>
</radialGradient>
<linearGradient id="paint10_linear_2299_2205" x1="18.6467" y1="0" x2="18.6467" y2="36" gradientUnits="userSpaceOnUse">
<stop stop-opacity="0.4"/>
<stop offset="1" stop-opacity="0.1"/>
</linearGradient>
<linearGradient id="paint11_linear_2299_2205" x1="18.6467" y1="0" x2="18.6467" y2="36" gradientUnits="userSpaceOnUse">
<stop stop-color="#332F2E"/>
<stop offset="1" stop-color="#151718"/>
</linearGradient>
<radialGradient id="paint12_radial_2299_2205" cx="0" cy="0" r="1" gradientUnits="userSpaceOnUse" gradientTransform="translate(14.3358 9.42857) rotate(44.8354) scale(6.0784 6.0783)">
<stop stop-color="#FF6342"/>
<stop offset="1" stop-color="#F34628"/>
</radialGradient>
<radialGradient id="paint13_radial_2299_2205" cx="0" cy="0" r="1" gradientUnits="userSpaceOnUse" gradientTransform="translate(14.3358 9.42857) rotate(44.8354) scale(6.0784 6.0783)">
<stop stop-color="#FF6342"/>
<stop offset="1" stop-color="#F34628"/>
</radialGradient>
<radialGradient id="paint14_radial_2299_2205" cx="0" cy="0" r="1" gradientUnits="userSpaceOnUse" gradientTransform="translate(22.9562 9.42857) rotate(133.696) scale(5.92751 5.92916)">
<stop stop-color="#FF867C"/>
<stop offset="1" stop-color="#FF756C"/>
</radialGradient>
<radialGradient id="paint15_radial_2299_2205" cx="0" cy="0" r="1" gradientUnits="userSpaceOnUse" gradientTransform="translate(22.9562 9.42857) rotate(133.696) scale(5.92751 5.92916)">
<stop stop-color="#FF867C"/>
<stop offset="1" stop-color="#FF756C"/>
</radialGradient>
<radialGradient id="paint16_radial_2299_2205" cx="0" cy="0" r="1" gradientUnits="userSpaceOnUse" gradientTransform="translate(22.9562 18) rotate(90) scale(4.28571 4.31041)">
<stop stop-color="#1FC3F6"/>
<stop offset="1" stop-color="#41CDFB"/>
</radialGradient>
<radialGradient id="paint17_radial_2299_2205" cx="0" cy="0" r="1" gradientUnits="userSpaceOnUse" gradientTransform="translate(22.9562 18) rotate(90) scale(4.28571 4.31041)">
<stop stop-color="#1FC3F6"/>
<stop offset="1" stop-color="#41CDFB"/>
</radialGradient>
<radialGradient id="paint18_radial_2299_2205" cx="0" cy="0" r="1" gradientUnits="userSpaceOnUse" gradientTransform="translate(14.3358 18) rotate(90) scale(4.28571 4.31041)">
<stop stop-color="#AC64F7"/>
<stop offset="1" stop-color="#A155F2"/>
</radialGradient>
<radialGradient id="paint19_radial_2299_2205" cx="0" cy="0" r="1" gradientUnits="userSpaceOnUse" gradientTransform="translate(14.3358 18) rotate(90) scale(4.28571 4.31041)">
<stop stop-color="#AC64F7"/>
<stop offset="1" stop-color="#A155F2"/>
</radialGradient>
<radialGradient id="paint20_radial_2299_2205" cx="0" cy="0" r="1" gradientUnits="userSpaceOnUse" gradientTransform="translate(14.3358 26.5714) rotate(90) scale(4.28571 4.31041)">
<stop stop-color="#00DD8C"/>
<stop offset="1" stop-color="#00C984"/>
</radialGradient>
<radialGradient id="paint21_radial_2299_2205" cx="0" cy="0" r="1" gradientUnits="userSpaceOnUse" gradientTransform="translate(14.3358 26.5714) rotate(90) scale(4.28571 4.31041)">
<stop stop-color="#00DD8C"/>
<stop offset="1" stop-color="#00C984"/>
</radialGradient>
</defs>
</svg>
