<svg width="37" height="37" viewBox="0 0 37 37" fill="none" xmlns="http://www.w3.org/2000/svg">
<g clip-path="url(#clip0_2299_2229)">
<path d="M18.1539 36.0148C28.0991 36.0148 36.1613 27.9526 36.1613 18.0074C36.1613 8.06219 28.0991 0 18.1539 0C8.20868 0 0.146484 8.06219 0.146484 18.0074C0.146484 27.9526 8.20868 36.0148 18.1539 36.0148Z" fill="#CFA967"/>
<path d="M18.1761 19.071V28.0668L24.8692 26.2638L26.4415 8.94293H18.1761V16.2944L18.5182 15.2286H19.4141L18.1761 19.071ZM9.86567 27.5389L8.02441 7.31551H28.2827L26.4415 27.5389L18.1311 29.8248L9.86567 27.5389ZM15.6764 19.8937V19.0597L12.8977 17.9523L15.6776 16.838V16.003L11.7081 17.6157V18.282L15.6764 19.8937ZM24.6047 18.282L20.6352 19.8937V19.0597L23.4151 17.9489L20.6352 16.838V16.003L24.6047 17.6157V18.282ZM18.1761 19.0698V16.2944L16.6939 20.9167H17.5807L18.1761 19.0698Z" fill="white"/>
</g>
<defs>
<clipPath id="clip0_2299_2229">
<rect width="36.0148" height="36.0148" fill="white" transform="translate(0.146484)"/>
</clipPath>
</defs>
</svg>
