<svg width="1440" height="2200" viewBox="0 0 1440 2200" fill="none" xmlns="http://www.w3.org/2000/svg">
<circle opacity="0.7" cx="729" cy="769" r="384.5" stroke="#E7E8FD" stroke-width="769"/>
<circle opacity="0.7" cx="-41" cy="1011" r="384.5" stroke="#E7E8FD" stroke-width="769"/>
<circle opacity="0.7" cx="1489" cy="1011" r="384.5" stroke="#E7E8FD" stroke-width="769"/>
<path opacity="0.1" d="M299 2062.64H15.9L15.9 1957C15.9 1937.75 19.4466 1920.77 26.54 1906.08C33.38 1891.13 43.5133 1879.48 56.94 1871.12C70.1133 1862.76 86.2 1858.58 105.2 1858.58C123.947 1858.58 140.033 1862.89 153.46 1871.5C166.633 1879.86 176.767 1891.39 183.86 1906.08C190.953 1920.77 194.5 1937.75 194.5 1957V2010.96H299V2062.64ZM148.9 2010.96V1956.24C148.9 1946.87 147.127 1938.76 143.58 1931.92C139.78 1925.08 134.587 1919.76 128 1915.96C121.413 1912.16 113.813 1910.26 105.2 1910.26C96.3333 1910.26 88.7333 1912.16 82.4 1915.96C75.8133 1919.76 70.7467 1925.08 67.2 1931.92C63.4 1938.76 61.5 1946.87 61.5 1956.24V2010.96H148.9ZM303.56 1726.76C303.56 1747.02 298.873 1765.52 289.5 1782.24C280.127 1798.7 267.333 1811.88 251.12 1821.76C234.907 1831.38 216.413 1836.2 195.64 1836.2C174.867 1836.2 156.373 1831.38 140.16 1821.76C123.947 1811.88 111.153 1798.7 101.78 1782.24C92.4066 1765.77 87.72 1747.28 87.72 1726.76C87.72 1706.49 92.4066 1688.12 101.78 1671.66C111.153 1655.19 123.947 1642.14 140.16 1632.52C156.12 1622.64 174.613 1617.7 195.64 1617.7C216.413 1617.7 234.907 1622.64 251.12 1632.52C267.333 1642.4 280.127 1655.57 289.5 1672.04C298.873 1688.5 303.56 1706.74 303.56 1726.76ZM257.96 1726.76C257.96 1715.61 255.3 1705.86 249.98 1697.5C244.66 1688.88 237.313 1682.17 227.94 1677.36C218.313 1672.29 207.547 1669.76 195.64 1669.76C183.48 1669.76 172.84 1672.29 163.72 1677.36C154.347 1682.17 147 1688.88 141.68 1697.5C136.107 1705.86 133.32 1715.61 133.32 1726.76C133.32 1738.16 136.107 1748.16 141.68 1756.78C147 1765.39 154.347 1772.23 163.72 1777.3C172.84 1782.11 183.48 1784.52 195.64 1784.52C207.547 1784.52 218.313 1782.11 227.94 1777.3C237.313 1772.23 244.66 1765.39 249.98 1756.78C255.3 1748.16 257.96 1738.16 257.96 1726.76ZM299 1579.94H92.28V1533.2H138.26L131.42 1537C115.967 1532.19 105.2 1524.72 99.12 1514.58C93.04 1504.2 90 1491.78 90 1477.34V1465.18H134.08V1483.04C134.08 1497.23 138.513 1508.63 147.38 1517.24C155.993 1525.86 168.153 1530.16 183.86 1530.16H299V1579.94ZM301.28 1338.01C301.28 1361.32 294.947 1379.43 282.28 1392.35C269.36 1405.02 251.247 1411.35 227.94 1411.35H136.74V1447.07H92.28V1443.27C92.28 1433.14 89.62 1425.28 84.3 1419.71C78.98 1414.14 71.2533 1411.35 61.12 1411.35H45.16L45.16 1361.57H92.28V1314.07H136.74V1361.57H225.28C232.12 1361.57 237.947 1360.43 242.76 1358.15C247.573 1355.62 251.247 1351.82 253.78 1346.75C256.313 1341.43 257.58 1334.72 257.58 1326.61C257.58 1324.84 257.453 1322.81 257.2 1320.53C256.947 1318 256.693 1315.59 256.44 1313.31H299C299.507 1316.86 300.013 1320.91 300.52 1325.47C301.027 1330.03 301.28 1334.21 301.28 1338.01ZM299 1251.34H136.74V1287.82H92.28V1251.34H85.44C69.7333 1251.34 56.4333 1248.17 45.54 1241.84C34.3933 1235.25 25.9067 1226.13 20.08 1214.48C14.2533 1202.82 11.34 1189.02 11.34 1173.06C11.34 1170.02 11.5933 1166.72 12.1 1163.18C12.3533 1159.38 12.7333 1156.21 13.24 1153.68H56.18C55.6733 1156.21 55.42 1158.62 55.42 1160.9C55.1667 1162.92 55.04 1164.82 55.04 1166.6C55.04 1177.74 57.5733 1186.36 62.64 1192.44C67.4533 1198.52 75.0533 1201.56 85.44 1201.56H92.28V1155.58H136.74V1201.56H299V1251.34ZM303.56 1025.76C303.56 1046.03 298.873 1064.52 289.5 1081.24C280.127 1097.71 267.333 1110.88 251.12 1120.76C234.907 1130.39 216.413 1135.2 195.64 1135.2C174.867 1135.2 156.373 1130.39 140.16 1120.76C123.947 1110.88 111.153 1097.71 101.78 1081.24C92.4066 1064.77 87.72 1046.28 87.72 1025.76C87.72 1005.49 92.4066 987.126 101.78 970.66C111.153 954.193 123.947 941.146 140.16 931.52C156.12 921.64 174.613 916.7 195.64 916.7C216.413 916.7 234.907 921.64 251.12 931.52C267.333 941.4 280.127 954.573 289.5 971.04C298.873 987.506 303.56 1005.75 303.56 1025.76ZM257.96 1025.76C257.96 1014.61 255.3 1004.86 249.98 996.5C244.66 987.886 237.313 981.173 227.94 976.36C218.313 971.293 207.547 968.76 195.64 968.76C183.48 968.76 172.84 971.293 163.72 976.36C154.347 981.173 147 987.886 141.68 996.5C136.107 1004.86 133.32 1014.61 133.32 1025.76C133.32 1037.16 136.107 1047.17 141.68 1055.78C147 1064.39 154.347 1071.23 163.72 1076.3C172.84 1081.11 183.48 1083.52 195.64 1083.52C207.547 1083.52 218.313 1081.11 227.94 1076.3C237.313 1071.23 244.66 1064.39 249.98 1055.78C255.3 1047.17 257.96 1037.16 257.96 1025.76ZM299 878.949H11.34V829.169H299V878.949ZM299 783.207H92.28V733.427H299V783.207ZM69.1 783.207H15.9V733.427H69.1V783.207ZM303.56 586.385C303.56 606.651 298.873 625.145 289.5 641.865C280.127 658.331 267.333 671.505 251.12 681.385C234.907 691.011 216.413 695.825 195.64 695.825C174.867 695.825 156.373 691.011 140.16 681.385C123.947 671.505 111.153 658.331 101.78 641.865C92.4066 625.398 87.72 606.905 87.72 586.385C87.72 566.118 92.4066 547.751 101.78 531.285C111.153 514.818 123.947 501.771 140.16 492.145C156.12 482.265 174.613 477.325 195.64 477.325C216.413 477.325 234.907 482.265 251.12 492.145C267.333 502.025 280.127 515.198 289.5 531.665C298.873 548.131 303.56 566.371 303.56 586.385ZM257.96 586.385C257.96 575.238 255.3 565.485 249.98 557.125C244.66 548.511 237.313 541.798 227.94 536.985C218.313 531.918 207.547 529.385 195.64 529.385C183.48 529.385 172.84 531.918 163.72 536.985C154.347 541.798 147 548.511 141.68 557.125C136.107 565.485 133.32 575.238 133.32 586.385C133.32 597.785 136.107 607.791 141.68 616.405C147 625.018 154.347 631.858 163.72 636.925C172.84 641.738 183.48 644.145 195.64 644.145C207.547 644.145 218.313 641.738 227.94 636.925C237.313 631.858 244.66 625.018 249.98 616.405C255.3 607.791 257.96 597.785 257.96 586.385Z" fill="#090F91"/>
</svg>
