<svg width="124" height="124" viewBox="0 0 124 124" fill="none" xmlns="http://www.w3.org/2000/svg">
<g filter="url(#filter0_d_2690_1133)">
<circle cx="32" cy="32" r="32" transform="matrix(-1 0 0 1 94 26)" fill="white"/>
<path d="M64.3269 58.7214L64.3299 58.0132C64.3299 55.0699 64.1576 52.3866 63.8979 50.6374L63.6705 49.5497C63.5439 48.9736 63.3776 48.3176 63.2041 47.9827C62.5692 46.7578 61.3278 46 59.9991 46H59.8834C59.0173 46.0286 57.1977 46.7887 57.1977 46.8151C54.2697 48.0437 48.6209 51.7514 46.012 54.3948L45.2539 55.1884C45.0553 55.4035 44.8323 55.658 44.6938 55.8564C44.2313 56.4689 44 57.2267 44 57.9846C44 58.8305 44.2596 59.617 44.7505 60.2603L45.5295 61.1009L45.704 61.2803C48.0712 63.8469 54.2522 68.0437 57.4857 69.3281L57.9738 69.5152C58.5613 69.7257 59.3844 69.9769 59.8834 70C60.5183 70 61.1249 69.8524 61.7031 69.5616C62.4252 69.154 63.0012 68.5107 63.3198 67.7529C63.5227 67.2286 63.8412 65.6534 63.8412 65.6247C64.1332 64.0365 64.3026 61.5304 64.3269 58.7214ZM80 57.9991C80 56.3226 78.6538 54.9633 76.9935 54.9633L69.595 55.6176C68.2925 55.6176 67.2365 56.6839 67.2365 57.9991C67.2365 59.3165 68.2925 60.3806 69.595 60.3806L76.9935 61.0349C78.6538 61.0349 80 59.6756 80 57.9991Z" fill="#8D098F"/>
</g>
<defs>
<filter id="filter0_d_2690_1133" x="0" y="0" width="124" height="124" filterUnits="userSpaceOnUse" color-interpolation-filters="sRGB">
<feFlood flood-opacity="0" result="BackgroundImageFix"/>
<feColorMatrix in="SourceAlpha" type="matrix" values="0 0 0 0 0 0 0 0 0 0 0 0 0 0 0 0 0 0 127 0" result="hardAlpha"/>
<feOffset dy="4"/>
<feGaussianBlur stdDeviation="15"/>
<feComposite in2="hardAlpha" operator="out"/>
<feColorMatrix type="matrix" values="0 0 0 0 1 0 0 0 0 1 0 0 0 0 1 0 0 0 0.3 0"/>
<feBlend mode="normal" in2="BackgroundImageFix" result="effect1_dropShadow_2690_1133"/>
<feBlend mode="normal" in="SourceGraphic" in2="effect1_dropShadow_2690_1133" result="shape"/>
</filter>
</defs>
</svg>
