<svg width="124" height="124" viewBox="0 0 124 124" fill="none" xmlns="http://www.w3.org/2000/svg">
<g filter="url(#filter0_d_2690_1139)">
<circle cx="62" cy="58" r="32" fill="white"/>
<path d="M59.6731 58.7214L59.6701 58.0132C59.6701 55.0699 59.8424 52.3866 60.1021 50.6374L60.3295 49.5497C60.4561 48.9736 60.6224 48.3176 60.7959 47.9827C61.4308 46.7578 62.6722 46 64.0009 46H64.1166C64.9827 46.0286 66.8023 46.7887 66.8023 46.8151C69.7303 48.0437 75.3791 51.7514 77.988 54.3948L78.7461 55.1884C78.9447 55.4035 79.1677 55.658 79.3062 55.8564C79.7687 56.4689 80 57.2267 80 57.9846C80 58.8305 79.7404 59.617 79.2495 60.2603L78.4705 61.1009L78.296 61.2803C75.9288 63.8469 69.7478 68.0437 66.5143 69.3281L66.0262 69.5152C65.4387 69.7257 64.6156 69.9769 64.1166 70C63.4817 70 62.8751 69.8524 62.2969 69.5616C61.5748 69.154 60.9988 68.5107 60.6802 67.7529C60.4773 67.2286 60.1588 65.6534 60.1588 65.6247C59.8668 64.0365 59.6974 61.5304 59.6731 58.7214ZM44 57.9991C44 56.3226 45.3462 54.9633 47.0065 54.9633L54.405 55.6176C55.7075 55.6176 56.7635 56.6839 56.7635 57.9991C56.7635 59.3165 55.7075 60.3806 54.405 60.3806L47.0065 61.0349C45.3462 61.0349 44 59.6756 44 57.9991Z" fill="#8D098F"/>
</g>
<defs>
<filter id="filter0_d_2690_1139" x="0" y="0" width="124" height="124" filterUnits="userSpaceOnUse" color-interpolation-filters="sRGB">
<feFlood flood-opacity="0" result="BackgroundImageFix"/>
<feColorMatrix in="SourceAlpha" type="matrix" values="0 0 0 0 0 0 0 0 0 0 0 0 0 0 0 0 0 0 127 0" result="hardAlpha"/>
<feOffset dy="4"/>
<feGaussianBlur stdDeviation="15"/>
<feComposite in2="hardAlpha" operator="out"/>
<feColorMatrix type="matrix" values="0 0 0 0 1 0 0 0 0 1 0 0 0 0 1 0 0 0 0.3 0"/>
<feBlend mode="normal" in2="BackgroundImageFix" result="effect1_dropShadow_2690_1139"/>
<feBlend mode="normal" in="SourceGraphic" in2="effect1_dropShadow_2690_1139" result="shape"/>
</filter>
</defs>
</svg>
