<svg width="118" height="118" viewBox="0 0 118 118" fill="none" xmlns="http://www.w3.org/2000/svg">
<g id="fluent:calendar-rtl-24-filled">
<path id="Vector" d="M14.75 41.7917V87.2708C14.75 91.5088 16.4335 95.5731 19.4302 98.5698C22.4269 101.566 26.4912 103.25 30.7292 103.25H87.2708C91.5088 103.25 95.5731 101.566 98.5698 98.5698C101.566 95.5731 103.25 91.5088 103.25 87.2708V41.7917H14.75ZM82.3542 73.75C83.9841 73.75 85.5474 74.3975 86.6999 75.5501C87.8525 76.7026 88.5 78.2659 88.5 79.8958C88.5 81.5258 87.8525 83.089 86.6999 84.2416C85.5474 85.3942 83.9841 86.0417 82.3542 86.0417C80.7242 86.0417 79.161 85.3942 78.0084 84.2416C76.8558 83.089 76.2083 81.5258 76.2083 79.8958C76.2083 78.2659 76.8558 76.7026 78.0084 75.5501C79.161 74.3975 80.7242 73.75 82.3542 73.75ZM59 73.75C60.63 73.75 62.1932 74.3975 63.3458 75.5501C64.4983 76.7026 65.1458 78.2659 65.1458 79.8958C65.1458 81.5258 64.4983 83.089 63.3458 84.2416C62.1932 85.3942 60.63 86.0417 59 86.0417C57.37 86.0417 55.8068 85.3942 54.6542 84.2416C53.5017 83.089 52.8542 81.5258 52.8542 79.8958C52.8542 78.2659 53.5017 76.7026 54.6542 75.5501C55.8068 74.3975 57.37 73.75 59 73.75ZM82.3542 51.625C83.9841 51.625 85.5474 52.2725 86.6999 53.4251C87.8525 54.5776 88.5 56.1409 88.5 57.7708C88.5 59.4008 87.8525 60.964 86.6999 62.1166C85.5474 63.2692 83.9841 63.9167 82.3542 63.9167C80.7242 63.9167 79.161 63.2692 78.0084 62.1166C76.8558 60.964 76.2083 59.4008 76.2083 57.7708C76.2083 56.1409 76.8558 54.5776 78.0084 53.4251C79.161 52.2725 80.7242 51.625 82.3542 51.625ZM59 51.625C60.63 51.625 62.1932 52.2725 63.3458 53.4251C64.4983 54.5776 65.1458 56.1409 65.1458 57.7708C65.1458 59.4008 64.4983 60.964 63.3458 62.1166C62.1932 63.2692 60.63 63.9167 59 63.9167C57.37 63.9167 55.8068 63.2692 54.6542 62.1166C53.5017 60.964 52.8542 59.4008 52.8542 57.7708C52.8542 56.1409 53.5017 54.5776 54.6542 53.4251C55.8068 52.2725 57.37 51.625 59 51.625ZM35.6458 51.625C37.2758 51.625 38.839 52.2725 39.9916 53.4251C41.1442 54.5776 41.7917 56.1409 41.7917 57.7708C41.7917 59.4008 41.1442 60.964 39.9916 62.1166C38.839 63.2692 37.2758 63.9167 35.6458 63.9167C34.0159 63.9167 32.4526 63.2692 31.3001 62.1166C30.1475 60.964 29.5 59.4008 29.5 57.7708C29.5 56.1409 30.1475 54.5776 31.3001 53.4251C32.4526 52.2725 34.0159 51.625 35.6458 51.625ZM30.7292 14.75C26.4912 14.75 22.4269 16.4335 19.4302 19.4302C16.4335 22.4269 14.75 26.4912 14.75 30.7292V34.4167H103.25V30.7292C103.25 26.4912 101.566 22.4269 98.5698 19.4302C95.5731 16.4335 91.5088 14.75 87.2708 14.75H30.7292Z" fill="url(#paint0_linear_831_5512)"/>
</g>
<defs>
<linearGradient id="paint0_linear_831_5512" x1="14.75" y1="59" x2="103.25" y2="59" gradientUnits="userSpaceOnUse">
<stop stop-color="#0F18ED"/>
<stop offset="1" stop-color="#E70FEB"/>
</linearGradient>
</defs>
</svg>
