<svg width="118" height="118" viewBox="0 0 118 118" fill="none" xmlns="http://www.w3.org/2000/svg">
<g id="fluent:handshake-24-filled">
<path id="Vector" d="M63.1051 15.5416C63.3787 15.3339 63.622 15.0889 63.8278 14.8139H76.4243C77.3742 14.7626 78.3261 14.7626 79.276 14.8139H79.4628C82.2616 14.806 85.0267 15.4242 87.5557 16.6232C92.1754 18.4354 96.1714 21.5468 99.0607 25.5814C101.248 28.6365 102.735 32.1354 103.419 35.8299C104.102 39.5244 103.963 43.324 103.014 46.9591L86.8821 31.0438C86.1916 30.3629 85.2607 29.9814 84.291 29.9818H60.8139C60.0606 30.0125 59.3347 30.2733 58.7342 30.7292L49.4712 37.7502C48.9734 38.1292 48.4058 38.4064 47.8008 38.5661C47.1959 38.7258 46.5654 38.7647 45.9454 38.6807C45.3254 38.5967 44.728 38.3914 44.1873 38.0765C43.6467 37.7616 43.1733 37.3433 42.7943 36.8455C42.4176 36.3555 42.1416 35.7957 41.9823 35.1985C41.8231 34.6013 41.7837 33.9784 41.8664 33.3659C41.9491 32.7533 42.1524 32.1633 42.4644 31.6297C42.7764 31.0961 43.191 30.6296 43.6842 30.2572L63.1051 15.5416ZM38.8364 69.9887L38.7676 70.0527L33.9787 74.812L33.9148 74.871C33.0762 75.6684 31.9601 76.1082 30.8029 76.0972C29.6457 76.0862 28.5382 75.6252 27.7149 74.812C27.3036 74.4042 26.9771 73.9191 26.7543 73.3845C26.5315 72.8499 26.4167 72.2765 26.4167 71.6973C26.4167 71.1181 26.5315 70.5447 26.7543 70.0101C26.9771 69.4755 27.3036 68.9903 27.7149 68.5826L32.5037 63.8232C33.3378 62.9973 34.4643 62.5339 35.6381 62.5339C36.812 62.5339 37.9384 62.9973 38.7725 63.8232C39.5923 64.6357 40.0588 65.7387 40.0708 66.8929C40.0828 68.047 39.6392 69.1594 38.8364 69.9887ZM37.4057 78.3372C36.6028 79.1665 36.1593 80.2789 36.1713 81.4331C36.1832 82.5873 36.6497 83.6902 37.4696 84.5027C39.2002 86.2236 42.0077 86.2236 43.7383 84.5027L48.5272 79.7434C48.9914 79.2831 49.3468 78.7248 49.5674 78.1094C49.7881 77.494 49.8683 76.837 49.8023 76.1866C49.7364 75.5362 49.5258 74.9088 49.1861 74.3502C48.8463 73.7917 48.386 73.3161 47.8388 72.9584C46.9988 72.4057 45.9965 72.1534 44.9949 72.2427C43.9933 72.332 43.0514 72.7575 42.3223 73.4501L42.2584 73.5189L37.4696 78.2733L37.4057 78.3372ZM27.0413 56.0844C27.4527 56.4921 27.7792 56.9773 28.002 57.5119C28.2248 58.0465 28.3395 58.6199 28.3395 59.1991C28.3395 59.7783 28.2248 60.3517 28.002 60.8863C27.7792 61.4209 27.4527 61.9061 27.0413 62.3138L22.2525 67.0732C21.4182 67.9006 20.2907 68.3649 19.1157 68.3649C17.9406 68.3649 16.8131 67.9006 15.9788 67.0732C15.5675 66.6654 15.241 66.1802 15.0182 65.6457C14.7954 65.1111 14.6807 64.5376 14.6807 63.9584C14.6807 63.3793 14.7954 62.8058 15.0182 62.2712C15.241 61.7366 15.5675 61.2515 15.9788 60.8437L20.7726 56.0844C21.6067 55.2584 22.7331 54.7951 23.907 54.7951C25.0808 54.7951 26.2072 55.2584 27.0413 56.0844ZM58.2769 83.2097C58.6882 83.6174 59.0147 84.1026 59.2375 84.6372C59.4604 85.1718 59.5751 85.7452 59.5751 86.3244C59.5751 86.9035 59.4604 87.477 59.2375 88.0116C59.0147 88.5462 58.6882 89.0313 58.2769 89.4391L53.4881 94.1984C52.654 95.0244 51.5276 95.4877 50.3537 95.4877C49.1798 95.4877 48.0534 95.0244 47.2193 94.1984C46.5663 93.551 46.1332 92.7146 45.9815 91.8076C45.8297 90.9006 45.9669 89.9688 46.3737 89.1441L46.3786 89.1342C46.593 88.7023 46.8771 88.3087 47.2193 87.969L52.0082 83.2097C52.8423 82.3837 53.9687 81.9203 55.1425 81.9203C56.3164 81.9203 57.4428 82.3837 58.2769 83.2097ZM26.2743 23.7475C29.5389 20.5042 33.4976 18.0448 37.8516 16.5552C42.2057 15.0655 46.8412 14.5844 51.4083 15.1482L39.2347 24.3768C37.9666 25.3362 36.9009 26.5368 36.0989 27.9097C35.2968 29.2827 34.7742 30.8007 34.5613 32.3764C34.3483 33.9521 34.4492 35.5543 34.858 37.0909C35.2669 38.6275 35.9756 40.068 36.9435 41.3295C38.8976 43.8766 41.7799 45.5476 44.9613 45.9777C48.1428 46.4079 51.3653 45.5623 53.9257 43.6256L62.2053 37.3568H82.7816L100.024 54.3685C100.08 54.4372 100.139 54.5028 100.201 54.5652L105.855 60.2193C107.127 61.5089 107.856 63.2373 107.892 65.0482C107.928 66.8592 107.267 68.6148 106.047 69.9535C104.827 71.2922 103.14 72.1119 101.333 72.2437C99.5267 72.3756 97.7385 71.8096 96.3368 70.6623L95.8648 70.1903C95.7734 70.0974 95.6748 70.0119 95.5698 69.9347L90.1959 64.5657C89.9691 64.3309 89.6979 64.1436 89.3979 64.0147C89.098 63.8859 88.7754 63.8181 88.449 63.8152C88.1226 63.8124 87.7989 63.8746 87.4968 63.9982C87.1946 64.1218 86.9202 64.3044 86.6893 64.5352C86.4585 64.766 86.276 65.0405 86.1524 65.3426C86.0288 65.6447 85.9666 65.9684 85.9694 66.2948C85.9723 66.6213 86.0401 66.9438 86.1689 67.2438C86.2978 67.5437 86.485 67.815 86.7198 68.0417L92.374 73.6959C92.5805 73.8975 92.787 74.0942 93.0033 74.281L93.2197 74.4973C93.6931 74.9607 94.07 75.5134 94.3284 76.1233C94.5869 76.7333 94.7218 77.3885 94.7254 78.051C94.7289 78.7134 94.6011 79.37 94.3492 79.9827C94.0974 80.5955 93.7265 81.1522 93.258 81.6206C92.7896 82.089 92.2329 82.4599 91.6202 82.7118C91.0074 82.9637 90.3508 83.0915 89.6884 83.088C89.0259 83.0844 88.3707 82.9495 87.7608 82.691C87.1508 82.4326 86.5981 82.0557 86.1347 81.5822L85.2989 80.7513C84.9522 80.4055 84.5101 80.1712 84.0293 80.0783C83.5485 79.9854 83.0509 80.0382 82.6003 80.2299C82.1497 80.4217 81.7667 80.7436 81.5003 81.1545C81.2338 81.5654 81.0962 82.0465 81.105 82.5361C81.0973 82.8686 81.1573 83.1992 81.2816 83.5078C81.4059 83.8163 81.5917 84.0963 81.8277 84.3307L82.9242 85.4271C83.376 85.8525 83.7378 86.3643 83.9882 86.9322C84.2385 87.5 84.3724 88.1124 84.3817 88.7329C84.391 89.3534 84.2757 89.9695 84.0425 90.5447C83.8093 91.1198 83.4631 91.6422 83.0243 92.0811C82.5854 92.5199 82.063 92.8662 81.4878 93.0993C80.9127 93.3325 80.2966 93.4479 79.6761 93.4385C79.0555 93.4292 78.4432 93.2954 77.8753 93.045C77.3075 92.7946 76.7957 92.4328 76.3702 91.981H76.3653L76.3063 91.9171L75.2738 90.8846C75.0466 90.6546 74.7759 90.472 74.4776 90.3474C74.1792 90.2228 73.8591 90.1586 73.5358 90.1586C73.2125 90.1586 72.8924 90.2228 72.594 90.3474C72.2957 90.472 72.025 90.6546 71.7977 90.8846C71.3369 91.3456 71.078 91.9707 71.078 92.6226C71.078 93.2745 71.3369 93.8996 71.7977 94.3606L72.8696 95.4374C73.3109 95.8732 73.662 96.3917 73.903 96.9632C74.1439 97.5348 74.2699 98.1482 74.2738 98.7684C74.2777 99.3886 74.1594 100.004 73.9256 100.578C73.6918 101.153 73.3472 101.675 72.9114 102.117C72.4755 102.558 71.9571 102.909 71.3855 103.15C70.814 103.391 70.2006 103.517 69.5804 103.521C68.9601 103.525 68.3452 103.406 67.7707 103.173C67.1962 102.939 66.6734 102.594 66.2321 102.158L59.1963 95.4718L61.7776 92.9053C62.6471 92.0441 63.3373 91.019 63.8083 89.8895C64.2793 88.7599 64.5218 87.5482 64.5218 86.3244C64.5218 85.1005 64.2793 83.8888 63.8083 82.7593C63.3373 81.6297 62.6471 80.6047 61.7776 79.7434C60.8577 78.8299 59.7584 78.117 58.5491 77.6499C57.3398 77.1828 56.0468 76.9715 54.7517 77.0294C54.8087 75.7393 54.5949 74.4516 54.1241 73.2491C53.6533 72.0467 52.9358 70.9561 52.018 70.0477C51.0989 69.1346 50.0004 68.4219 48.792 67.9548C47.5835 67.4877 46.2913 67.2762 44.997 67.3337C45.0536 66.0444 44.8397 64.7575 44.3688 63.5559C43.898 62.3543 43.1808 61.2646 42.2633 60.357C41.0946 59.198 39.6422 58.366 38.0512 57.9441C36.4603 57.5222 34.7864 57.5252 33.197 57.9527C32.9238 55.9296 31.9885 54.0538 30.5371 52.6182C28.9196 51.0149 26.7756 50.0526 24.5026 49.9098C22.2297 49.7669 19.9821 50.4532 18.1766 51.8413C17.0154 46.8567 17.1499 41.6579 18.5675 36.74C19.985 31.8222 22.6382 27.3493 26.2743 23.7475Z" fill="url(#paint0_linear_831_5502)"/>
</g>
<defs>
<linearGradient id="paint0_linear_831_5502" x1="14.6807" y1="59.1482" x2="107.893" y2="59.1482" gradientUnits="userSpaceOnUse">
<stop stop-color="#0F18ED"/>
<stop offset="1" stop-color="#E70FEB"/>
</linearGradient>
</defs>
</svg>
