<svg width="118" height="118" viewBox="0 0 118 118" fill="none" xmlns="http://www.w3.org/2000/svg">
<g id="fluent:people-community-24-filled">
<path id="Vector" d="M36.8747 39.3333C40.7866 39.3333 44.5383 37.7793 47.3045 35.0132C50.0707 32.247 51.6247 28.4953 51.6247 24.5833C51.6247 20.6714 50.0707 16.9197 47.3045 14.1535C44.5383 11.3874 40.7866 9.83334 36.8747 9.83334C32.9627 9.83334 29.211 11.3874 26.4448 14.1535C23.6787 16.9197 22.1247 20.6714 22.1247 24.5833C22.1247 28.4953 23.6787 32.247 26.4448 35.0132C29.211 37.7793 32.9627 39.3333 36.8747 39.3333ZM9.83301 52.9427C9.83301 48.1342 13.7221 44.25 18.5257 44.25H41.9634C40.2347 47.2384 39.3272 50.6309 39.333 54.0833C39.3297 56.874 39.9218 59.6332 41.0698 62.1768C42.2178 64.7203 43.8953 66.9897 45.9902 68.8333H40.6507C37.8796 68.8335 35.1746 69.6788 32.8966 71.2566C30.6186 72.8344 28.8761 75.0696 27.9018 77.6637C20.5366 75.8642 15.969 71.8473 13.2796 67.3731C9.83301 61.6353 9.83301 55.7353 9.83301 54.7078V52.9427ZM78.6663 54.0833C78.6723 50.6309 77.7648 47.2384 76.0359 44.25H99.4737C104.282 44.25 108.166 48.1391 108.166 52.9427V54.7127C108.166 55.7304 108.166 61.6353 104.725 67.3731C102.03 71.8473 97.4628 75.8642 90.0976 77.6637C89.1238 75.0692 87.3815 72.8337 85.1034 71.2558C82.8253 69.6779 80.1199 68.8328 77.3487 68.8333H72.0092C74.1041 66.9897 75.7815 64.7203 76.9295 62.1768C78.0775 59.6332 78.6696 56.874 78.6663 54.0833ZM95.8747 24.5833C95.8747 28.4953 94.3207 32.247 91.5545 35.0132C88.7883 37.7793 85.0366 39.3333 81.1247 39.3333C77.2127 39.3333 73.461 37.7793 70.6948 35.0132C67.9287 32.247 66.3747 28.4953 66.3747 24.5833C66.3747 20.6714 67.9287 16.9197 70.6948 14.1535C73.461 11.3874 77.2127 9.83334 81.1247 9.83334C85.0366 9.83334 88.7883 11.3874 91.5545 14.1535C94.3207 16.9197 95.8747 20.6714 95.8747 24.5833ZM31.958 82.4427C31.958 77.6342 35.8471 73.75 40.6507 73.75H77.3487C82.1523 73.75 86.0413 77.6391 86.0413 82.4427V84.2127C86.0413 85.2304 86.0413 91.1353 82.5997 96.8731C78.9466 102.94 71.8469 108.167 58.9997 108.167C46.1524 108.167 39.0478 102.94 35.3997 96.8731C31.958 91.1353 31.958 85.2353 31.958 84.2078V82.4427ZM58.9997 68.8333C60.9367 68.8333 62.8547 68.4518 64.6443 67.7106C66.4338 66.9693 68.0598 65.8828 69.4295 64.5132C70.7992 63.1435 71.8856 61.5175 72.6269 59.7279C73.3682 57.9384 73.7497 56.0203 73.7497 54.0833C73.7497 52.1463 73.3682 50.2283 72.6269 48.4388C71.8856 46.6492 70.7992 45.0232 69.4295 43.6535C68.0598 42.2839 66.4338 41.1974 64.6443 40.4561C62.8547 39.7149 60.9367 39.3333 58.9997 39.3333C55.0877 39.3333 51.336 40.8874 48.5698 43.6535C45.8037 46.4197 44.2497 50.1714 44.2497 54.0833C44.2497 57.9953 45.8037 61.747 48.5698 64.5132C51.336 67.2793 55.0877 68.8333 58.9997 68.8333Z" fill="url(#paint0_linear_831_5465)"/>
</g>
<defs>
<linearGradient id="paint0_linear_831_5465" x1="9.83301" y1="59" x2="108.166" y2="59" gradientUnits="userSpaceOnUse">
<stop stop-color="#0F18ED"/>
<stop offset="1" stop-color="#E70FEB"/>
</linearGradient>
</defs>
</svg>
