<svg width="118" height="118" viewBox="0 0 118 118" fill="none" xmlns="http://www.w3.org/2000/svg">
<g id="fluent:ribbon-star-24-filled">
<path id="Vector" d="M83.583 104.455L83.5928 74.9546C76.6206 80.554 67.9421 83.599 58.9997 83.5833C50.0612 83.5981 41.3867 80.5551 34.4163 74.9595L34.4311 104.459C34.4327 105.134 34.6191 105.795 34.9702 106.37C35.3212 106.946 35.8233 107.414 36.422 107.725C37.0206 108.035 37.6929 108.175 38.3656 108.13C39.0384 108.085 39.6859 107.856 40.2377 107.468L59.0046 94.2574L77.7764 107.468C78.3286 107.858 78.977 108.087 79.651 108.133C80.3249 108.179 80.9984 108.039 81.5981 107.728C82.1977 107.417 82.7004 106.947 83.0513 106.37C83.4022 105.793 83.5829 105.13 83.583 104.455ZM93.4163 44.25C93.4163 39.7303 92.5261 35.2549 90.7965 31.0793C89.0669 26.9037 86.5318 23.1096 83.3359 19.9137C80.14 16.7178 76.346 14.1827 72.1704 12.4531C67.9947 10.7235 63.5193 9.83331 58.9997 9.83331C54.48 9.83331 50.0046 10.7235 45.829 12.4531C41.6534 14.1827 37.8593 16.7178 34.6634 19.9137C31.4675 23.1096 28.9324 26.9037 27.2028 31.0793C25.4732 35.2549 24.583 39.7303 24.583 44.25C24.583 53.3778 28.209 62.1319 34.6634 68.5862C41.1178 75.0406 49.8718 78.6666 58.9997 78.6666C68.1275 78.6666 76.8816 75.0406 83.3359 68.5862C89.7903 62.1319 93.4163 53.3778 93.4163 44.25ZM60.1256 27.7398L64.6096 36.8504L74.6593 38.3008C75.6918 38.4483 76.0998 39.7168 75.3574 40.4396L68.0857 47.5196L69.8065 57.5299C69.8463 57.7605 69.8207 57.9977 69.7326 58.2146C69.6445 58.4314 69.4975 58.6193 69.3082 58.7569C69.1189 58.8946 68.8949 58.9765 68.6614 58.9933C68.428 59.0102 68.1945 58.9614 67.9873 58.8525L58.9997 54.1226L50.0169 58.8525C49.8098 58.9614 49.5763 59.0102 49.3428 58.9933C49.1094 58.9765 48.8853 58.8946 48.696 58.7569C48.5067 58.6193 48.3597 58.4314 48.2717 58.2146C48.1836 57.9977 48.158 57.7605 48.1978 57.5299L49.9186 47.5245L42.6419 40.4445C42.4728 40.2812 42.353 40.0736 42.2962 39.8455C42.2394 39.6174 42.2479 39.3779 42.3207 39.1543C42.3935 38.9308 42.5277 38.7323 42.708 38.5813C42.8882 38.4304 43.1072 38.3332 43.3401 38.3008L53.3898 36.8504L57.8738 27.7398C57.9769 27.5292 58.1372 27.3517 58.3362 27.2275C58.5352 27.1034 58.7651 27.0376 58.9997 27.0376C59.2342 27.0376 59.4641 27.1034 59.6631 27.2275C59.8622 27.3517 60.0224 27.5292 60.1256 27.7398Z" fill="url(#paint0_linear_831_5522)"/>
</g>
<defs>
<linearGradient id="paint0_linear_831_5522" x1="24.583" y1="58.9875" x2="93.4163" y2="58.9875" gradientUnits="userSpaceOnUse">
<stop stop-color="#0F18ED"/>
<stop offset="1" stop-color="#E70FEB"/>
</linearGradient>
</defs>
</svg>
