<svg width="1440" height="8254" viewBox="0 0 1440 8254" fill="none" xmlns="http://www.w3.org/2000/svg">
<circle opacity="0.7" cx="725" cy="5424" r="384.5" stroke="#E7E8FD" stroke-width="769"/>
<circle opacity="0.7" cx="-45" cy="5666" r="384.5" stroke="#E7E8FD" stroke-width="769"/>
<circle opacity="0.7" cx="1485" cy="5666" r="384.5" stroke="#E7E8FD" stroke-width="769"/>
<path opacity="0.1" d="M255 6827.64H-28.1V6775.96H255V6827.64ZM255 6725.69H-32.66V6675.91H255V6725.69ZM255 6629.94H-32.66V6580.16H155.82L150.12 6599.16L48.28 6501.88V6439.94L131.5 6516.32L255 6438.43V6495.42L147.84 6563.06L141.76 6533.42L208.64 6595.74L178.24 6580.16H255V6629.94ZM259.56 6313.26C259.56 6333.53 254.873 6352.02 245.5 6368.74C236.127 6385.21 223.333 6398.38 207.12 6408.26C190.907 6417.89 172.413 6422.7 151.64 6422.7C130.867 6422.7 112.373 6417.89 96.16 6408.26C79.9467 6398.38 67.1533 6385.21 57.78 6368.74C48.4066 6352.27 43.72 6333.78 43.72 6313.26C43.72 6292.99 48.4066 6274.63 57.78 6258.16C67.1533 6241.69 79.9467 6228.65 96.16 6219.02C112.12 6209.14 130.613 6204.2 151.64 6204.2C172.413 6204.2 190.907 6209.14 207.12 6219.02C223.333 6228.9 236.127 6242.07 245.5 6258.54C254.873 6275.01 259.56 6293.25 259.56 6313.26ZM213.96 6313.26C213.96 6302.11 211.3 6292.36 205.98 6284C200.66 6275.39 193.313 6268.67 183.94 6263.86C174.313 6258.79 163.547 6256.26 151.64 6256.26C139.48 6256.26 128.84 6258.79 119.72 6263.86C110.347 6268.67 103 6275.39 97.68 6284C92.1067 6292.36 89.32 6302.11 89.32 6313.26C89.32 6324.66 92.1067 6334.67 97.68 6343.28C103 6351.89 110.347 6358.73 119.72 6363.8C128.84 6368.61 139.48 6371.02 151.64 6371.02C163.547 6371.02 174.313 6368.61 183.94 6363.8C193.313 6358.73 200.66 6351.89 205.98 6343.28C211.3 6334.67 213.96 6324.66 213.96 6313.26ZM255 6166.45H48.28L48.28 6119.71H96.16L88.18 6125.03C73.2333 6121.23 62.0867 6113.63 54.74 6102.23C47.3933 6090.83 43.72 6077.4 43.72 6061.95C43.72 6044.98 48.1533 6030.03 57.02 6017.11C65.8867 6004.19 77.54 5995.83 91.98 5992.03L93.12 6006.09C76.6533 5999.76 64.3667 5990.26 56.26 5977.59C47.9 5964.92 43.72 5950.36 43.72 5933.89C43.72 5919.2 47.0133 5906.15 53.6 5894.75C60.1867 5883.1 69.4333 5873.98 81.34 5867.39C92.9933 5860.8 106.547 5857.51 122 5857.51H255V5907.29H133.78C124.66 5907.29 116.807 5908.94 110.22 5912.23C103.633 5915.52 98.5667 5920.08 95.02 5925.91C91.22 5931.74 89.32 5938.83 89.32 5947.19C89.32 5955.04 91.22 5962.01 95.02 5968.09C98.5667 5974.17 103.633 5978.86 110.22 5982.15C116.807 5985.44 124.66 5987.09 133.78 5987.09H255V6036.87H133.78C124.66 6036.87 116.807 6038.52 110.22 6041.81C103.633 6045.1 98.5667 6049.79 95.02 6055.87C91.22 6061.7 89.32 6068.66 89.32 6076.77C89.32 6084.62 91.22 6091.59 95.02 6097.67C98.5667 6103.75 103.633 6108.44 110.22 6111.73C116.807 6115.02 124.66 6116.67 133.78 6116.67H255V6166.45ZM259.56 5741.67C259.56 5757.63 256.013 5771.57 248.92 5783.47C241.827 5795.13 231.947 5804.12 219.28 5810.45C206.613 5816.53 191.793 5819.57 174.82 5819.57H48.28V5769.79H170.64C179.253 5769.79 186.853 5768.15 193.44 5764.85C199.773 5761.31 204.84 5756.37 208.64 5750.03C212.187 5743.45 213.96 5736.1 213.96 5727.99C213.96 5719.89 212.187 5712.67 208.64 5706.33C204.84 5700 199.647 5695.06 193.06 5691.51C186.473 5687.97 178.62 5686.19 169.5 5686.19H48.28V5636.41H255V5683.53H214.34L221.56 5679.35C234.227 5684.17 243.727 5692.15 250.06 5703.29C256.393 5714.19 259.56 5726.98 259.56 5741.67ZM255 5590.14H48.28V5543.4H88.94L81.72 5547.2C69.3067 5542.39 59.9333 5534.53 53.6 5523.64C47.0133 5512.49 43.72 5499.57 43.72 5484.88C43.72 5469.68 47.0133 5456.25 53.6 5444.6C60.1867 5432.69 69.4333 5423.45 81.34 5416.86C92.9933 5410.27 106.547 5406.98 122 5406.98H255V5456.76H133.78C124.66 5456.76 116.807 5458.53 110.22 5462.08C103.633 5465.63 98.5667 5470.57 95.02 5476.9C91.22 5482.98 89.32 5490.2 89.32 5498.56C89.32 5506.67 91.22 5513.89 95.02 5520.22C98.5667 5526.55 103.633 5531.49 110.22 5535.04C116.807 5538.59 124.66 5540.36 133.78 5540.36H255V5590.14ZM255 5364.89H48.28V5315.11H255V5364.89ZM25.1 5364.89H-28.1L-28.1 5315.11H25.1V5364.89ZM257.28 5174.9C257.28 5198.21 250.947 5216.32 238.28 5229.24C225.36 5241.91 207.247 5248.24 183.94 5248.24H92.74V5283.96H48.28V5280.16C48.28 5270.03 45.62 5262.18 40.3 5256.6C34.98 5251.03 27.2533 5248.24 17.12 5248.24H1.15998L1.15998 5198.46H48.28V5150.96H92.74V5198.46H181.28C188.12 5198.46 193.947 5197.32 198.76 5195.04C203.573 5192.51 207.247 5188.71 209.78 5183.64C212.313 5178.32 213.58 5171.61 213.58 5163.5C213.58 5161.73 213.453 5159.7 213.2 5157.42C212.947 5154.89 212.693 5152.48 212.44 5150.2H255C255.507 5153.75 256.013 5157.8 256.52 5162.36C257.027 5166.92 257.28 5171.1 257.28 5174.9ZM338.98 5087.09C338.98 5092.66 338.473 5098.11 337.46 5103.43C336.7 5108.75 335.307 5113.56 333.28 5117.87H291.48C292.24 5114.58 293 5110.65 293.76 5106.09C294.52 5101.28 294.9 5096.84 294.9 5092.79C294.9 5081.39 292.24 5073.16 286.92 5068.09C281.6 5062.77 274.633 5058.08 266.02 5054.03L234.1 5040.35L275.9 5041.11L48.28 5131.17V5077.59L216.24 5014.51V5033.51L48.28 4970.81V4916.85L275.9 5006.91C289.327 5012.23 300.727 5018.69 310.1 5026.29C319.473 5033.89 326.567 5042.76 331.38 5052.89C336.447 5062.77 338.98 5074.17 338.98 5087.09Z" fill="#090F91"/>
<path opacity="0.2" d="M1591 6873C1591 6839.86 1564.14 6813 1531 6813H1267C1101.31 6813 967 6947.31 967 7113V7427C967 7460.14 993.863 7487 1027 7487H1291C1456.69 7487 1591 7352.69 1591 7187V6873Z" fill="url(#paint0_linear_717_4019)" fill-opacity="0.8"/>
<path opacity="0.2" d="M1561 6904C1561 6870.86 1534.14 6844 1501 6844H1237C1071.31 6844 937 6978.31 937 7144V7457C937 7490.14 963.863 7517 997 7517H1261C1426.69 7517 1561 7382.69 1561 7217V6904Z" fill="url(#paint1_linear_717_4019)" fill-opacity="0.8"/>
<path opacity="0.2" d="M1530 6934C1530 6900.86 1503.14 6874 1470 6874H1206C1040.31 6874 906 7008.31 906 7174V7487C906 7520.14 932.863 7547 966 7547H1230C1395.69 7547 1530 7412.69 1530 7247V6934Z" fill="url(#paint2_linear_717_4019)" fill-opacity="0.8"/>
<path opacity="0.2" d="M1500 6975C1500 6941.86 1473.14 6915 1440 6915H1176C1010.31 6915 876 7049.31 876 7215V7528C876 7561.14 902.863 7588 936 7588H1200C1365.69 7588 1500 7453.69 1500 7288V6975Z" fill="url(#paint3_linear_717_4019)" fill-opacity="0.8"/>
<circle opacity="0.2" cx="1358.5" cy="3763.5" r="488.5" stroke="url(#paint4_linear_717_4019)" stroke-width="350"/>
<circle opacity="0.2" cx="141.5" cy="7937.5" r="488.5" transform="rotate(180 141.5 7937.5)" stroke="url(#paint5_linear_717_4019)" stroke-width="350"/>
<circle opacity="0.2" cx="488.5" cy="488.5" r="488.5" transform="matrix(-1 0 0 1 459 1917)" stroke="url(#paint6_linear_717_4019)" stroke-width="350"/>
<defs>
<linearGradient id="paint0_linear_717_4019" x1="1279" y1="6813" x2="1279" y2="7487" gradientUnits="userSpaceOnUse">
<stop stop-color="#BED4FF"/>
<stop offset="0.294792" stop-color="#F6BEFF"/>
<stop offset="0.555208" stop-color="#D4CBFF" stop-opacity="0.98"/>
<stop offset="0.820833" stop-color="#FAA0F6"/>
<stop offset="0.982292" stop-color="#D0ACFE"/>
</linearGradient>
<linearGradient id="paint1_linear_717_4019" x1="1249" y1="6844" x2="1249" y2="7517" gradientUnits="userSpaceOnUse">
<stop stop-color="#BED4FF"/>
<stop offset="0.294792" stop-color="#F6BEFF"/>
<stop offset="0.555208" stop-color="#D4CBFF" stop-opacity="0.98"/>
<stop offset="0.820833" stop-color="#FAA0F6"/>
<stop offset="0.982292" stop-color="#D0ACFE"/>
</linearGradient>
<linearGradient id="paint2_linear_717_4019" x1="1218" y1="6874" x2="1218" y2="7547" gradientUnits="userSpaceOnUse">
<stop stop-color="#BED4FF"/>
<stop offset="0.294792" stop-color="#F6BEFF"/>
<stop offset="0.555208" stop-color="#D4CBFF" stop-opacity="0.98"/>
<stop offset="0.820833" stop-color="#FAA0F6"/>
<stop offset="0.982292" stop-color="#D0ACFE"/>
</linearGradient>
<linearGradient id="paint3_linear_717_4019" x1="1188" y1="6915" x2="1188" y2="7588" gradientUnits="userSpaceOnUse">
<stop stop-color="#BED4FF"/>
<stop offset="0.294792" stop-color="#F6BEFF"/>
<stop offset="0.555208" stop-color="#D4CBFF" stop-opacity="0.98"/>
<stop offset="0.820833" stop-color="#FAA0F6"/>
<stop offset="0.982292" stop-color="#D0ACFE"/>
</linearGradient>
<linearGradient id="paint4_linear_717_4019" x1="1577.5" y1="3275" x2="870" y2="4286.2" gradientUnits="userSpaceOnUse">
<stop stop-color="#F5C5FA" stop-opacity="0.1"/>
<stop offset="1" stop-color="#F4C2FA"/>
</linearGradient>
<linearGradient id="paint5_linear_717_4019" x1="360.5" y1="7449" x2="-347" y2="8460.2" gradientUnits="userSpaceOnUse">
<stop stop-color="#F5C5FA" stop-opacity="0.1"/>
<stop offset="1" stop-color="#F4C2FA"/>
</linearGradient>
<linearGradient id="paint6_linear_717_4019" x1="707.5" y1="2.00078e-05" x2="-5.15442e-06" y2="1011.2" gradientUnits="userSpaceOnUse">
<stop stop-color="#F5C5FA" stop-opacity="0.1"/>
<stop offset="1" stop-color="#F4C2FA"/>
</linearGradient>
</defs>
</svg>
