<svg xmlns="http://www.w3.org/2000/svg" xmlns:xlink="http://www.w3.org/1999/xlink" viewBox="0 0 1674.28 597.1"><defs><style>.cls-1{fill:url(#linear-gradient);}.cls-2{fill:none;}.cls-3{fill:url(#linear-gradient-2);}.cls-4{fill:url(#linear-gradient-3);}.cls-5{fill:url(#linear-gradient-4);}.cls-6{fill:url(#linear-gradient-5);}</style><linearGradient id="linear-gradient" y1="371.92" x2="354.42" y2="371.92" gradientUnits="userSpaceOnUse"><stop offset="0" stop-color="#e865ed" stop-opacity="0.7"/><stop offset="1" stop-color="#e9bfff"/></linearGradient><linearGradient id="linear-gradient-2" x1="258.69" y1="454.66" x2="443.74" y2="454.66" xlink:href="#linear-gradient"/><linearGradient id="linear-gradient-3" x1="197.84" y1="255.7" x2="538.58" y2="255.7" gradientUnits="userSpaceOnUse"><stop offset="0" stop-color="#e9bfff"/><stop offset="0.63" stop-color="#e884f3" stop-opacity="0.8"/><stop offset="1" stop-color="#e865ed" stop-opacity="0.7"/></linearGradient><linearGradient id="linear-gradient-4" x1="197.84" y1="254.32" x2="538.58" y2="254.32" xlink:href="#linear-gradient"/><linearGradient id="linear-gradient-5" x1="501.82" y1="368.05" x2="1674.28" y2="368.05" gradientUnits="userSpaceOnUse"><stop offset="0" stop-color="#e9bfff"/><stop offset="0.47" stop-color="#e993f6" stop-opacity="0.85"/><stop offset="1" stop-color="#e865ed" stop-opacity="0.7"/></linearGradient></defs><g id="Layer_2" data-name="Layer 2"><g id="Layer_1-2" data-name="Layer 1"><path class="cls-1" d="M274.62,507c-55.23-38-76.18-96.35-83.69-115.48-17.64-44.92-11.17-79.13-35.77-121.76-14.38-24.91-30.57-38.77-37.84-44.48a145.59,145.59,0,0,0-28.41-17.46l0,0a61.7,61.7,0,1,0,34.47,55.37,62.74,62.74,0,0,0-.92-10.6c3.88,8.26,12.18,29,14.79,69.43a259.87,259.87,0,0,1,.24,33c-1.93,31.35-2.26,45.15-2.3,54.33-.17,38,29.95,69.31,43.34,83.23,63,65.5,167,48,175.87,46.32C334.62,535.56,304.58,527.63,274.62,507Z"/><path class="cls-2" d="M300.29,312.22q3.79-4.65,7.93-9.22A97.91,97.91,0,0,0,300.29,312.22Z"/><path class="cls-3" d="M430.53,459.35a120.09,120.09,0,0,0-6.64-12.22c-41.34-66.25-130-64.36-133.46-106.85-.77-9.45,2.85-18.7,9.86-28.06-36.47,44.67-50.34,95.27-36.1,137.1,7.83,23,26.85,51.22,52.19,62.07,2.37.91,4.72,1.72,7.05,2.49,25.05,8.23,48.28,9.82,72.94,30.94,20,17.14,30.31,38,35.77,52.28C443.48,557.6,451.92,504.45,430.53,459.35Z"/><path class="cls-4" d="M536.7,0a262.15,262.15,0,0,1-45.4,44.94c-44.49,34.32-81.21,39.2-124.06,55.74C327.48,116,264.65,140.29,228.52,194c-43.9,65.24-35.92,155.42-6,217.37,11.72,24.23,36.38,75.22,88,97.68,1.94.85,3.86,1.62,5.77,2.35-25.34-10.85-44.36-39-52.19-62.07-14.24-41.83-.37-92.43,36.1-137.1a97.91,97.91,0,0,1,7.93-9.22c17.12-17.78,45-36.24,76.82-57.31,58.83-38.94,79.25-36.3,105.34-60.42,10.31-9.52,20.64-22.44,29.07-40.47C533.78,114.17,542.65,68.77,536.7,0Z"/><path class="cls-5" d="M536.7,0c1.68,104.38-28.84,153.76-57.5,179.57-23.79,21.42-35.11,16.52-116,68.33-55.82,35.74-75,53.78-89.89,78-9,14.63-25.15,41.55-24.3,78.88.23,10.15,1.73,49.76,32.1,81.63a113.42,113.42,0,0,0,29.69,22.28c-22.53-12.33-39.35-38-46.59-59.33-14.24-41.83-.37-92.43,36.1-137.1a97.91,97.91,0,0,1,7.93-9.22c17.12-17.78,45-36.24,76.82-57.31,58.83-38.94,79.25-36.3,105.34-60.42,10.31-9.52,20.64-22.44,29.07-40.47C533.78,114.17,542.65,68.77,536.7,0Z"/><path class="cls-6" d="M501.82,429.47v-171H537.4v171Zm63.36,0V255.67h34.44v173.8Zm59.69,0V255.67h34.44V367l-12.86-4.13,55.33-58.77h42.47l-45.46,50.5L744,429.47H705l-37.88-63.6,20-5.05-38.33,41.79,10.56-20v46.84Zm194.45,2.75a68.5,68.5,0,0,1-33.86-8.49,65.28,65.28,0,0,1-24.34-23.3q-9.06-14.82-9.06-33.64,0-19.05,9.06-33.75a65.69,65.69,0,0,1,24.34-23.19,71.55,71.55,0,0,1,67.61,0A65.89,65.89,0,0,1,877.29,333q9.08,14.7,9.07,33.75,0,18.82-9.07,33.64a65.47,65.47,0,0,1-24.22,23.3A67.84,67.84,0,0,1,819.32,432.22Zm0-31a29.43,29.43,0,0,0,27.44-16.53,38.54,38.54,0,0,0,4-17.91,37.87,37.87,0,0,0-4-17.79,31.4,31.4,0,0,0-11-12.17,29.86,29.86,0,0,0-16.42-4.48,30.45,30.45,0,0,0-16.53,4.48A31.14,31.14,0,0,0,791.66,349a37.87,37.87,0,0,0-4,17.79,38.54,38.54,0,0,0,4,17.91,30.14,30.14,0,0,0,11.13,12.17A31,31,0,0,0,819.32,401.23Zm87.24,28.24V304.12H938.7v30.53l-3.44-5q2.76-14.46,13.32-21.35t25.25-6.89q15.61,0,27.43,7.92a33.69,33.69,0,0,1,14.81,21.24l-9.87.92q6.19-15.39,17.68-22.73t26.86-7.35a47.5,47.5,0,0,1,24,6A43,43,0,0,1,1091.15,324q6,10.66,6,24.9v80.59h-34.44V356.23A28,28,0,0,0,1060,343.6a20,20,0,0,0-7.46-8.26,24.21,24.21,0,0,0-23.31,0,19.76,19.76,0,0,0-7.57,8.26,28,28,0,0,0-2.64,12.63v73.24H984.62V356.23A28,28,0,0,0,982,343.6a20,20,0,0,0-7.46-8.26,24.19,24.19,0,0,0-23.3,0,19.72,19.72,0,0,0-7.58,8.26A28,28,0,0,0,941,356.23v73.24Zm258.28,2.75q-15.15,0-25.83-6.54a41.76,41.76,0,0,1-16.19-18.25q-5.5-11.71-5.51-27.32v-76h34.44v73.23a26.24,26.24,0,0,0,2.87,12.51,20.37,20.37,0,0,0,8.15,8.38,25.55,25.55,0,0,0,24,0,20.62,20.62,0,0,0,8-8.38,26.24,26.24,0,0,0,2.87-12.51V304.12h34.44V429.47H1200v-24.8l1.84,5.51a31.17,31.17,0,0,1-14.12,16.65Q1177.92,432.22,1164.84,432.22Zm92.52-2.75V304.12h32.14v24.79l-1.84-5.51a31.11,31.11,0,0,1,14.12-16.64q9.77-5.4,22.85-5.4,14.23,0,24.91,6A42.49,42.49,0,0,1,1366.18,324q6,10.66,6,24.9v80.59h-34.44V356.23a26.15,26.15,0,0,0-2.87-12.63,20.85,20.85,0,0,0-8-8.26,25.55,25.55,0,0,0-24,0,20.56,20.56,0,0,0-8.15,8.26,26,26,0,0,0-2.87,12.63v73.24Zm137.52-136.6V258.43h34.44v34.44Zm0,136.6V304.12h34.44V429.47ZM1515,430.85q-22.73,0-35.24-12.29t-12.51-34.32V334h-21.13V304.12h1.15q9.65,0,14.81-4.83t5.17-14.46v-9.18h34.43v28.47H1531V334h-29.39v48a22.28,22.28,0,0,0,2.3,10.68,14,14,0,0,0,7.12,6.31A30.26,30.26,0,0,0,1523,401a34.64,34.64,0,0,0,3.68-.23c1.37-.15,2.83-.31,4.36-.46v29.16q-3.45.45-7.81.92A80.79,80.79,0,0,1,1515,430.85Zm55.78,49.58a61,61,0,0,1-10.67-.91,31,31,0,0,1-9.07-3V448.29a65,65,0,0,0,7.58,1.61,51.55,51.55,0,0,0,8,.69q10.1,0,14.47-4.82a41.43,41.43,0,0,0,7.11-11l8.5-19.52-.46,28.7-55.1-139.81h37l36.5,99.4h-13.77l36.5-99.4h37l-53.73,137.06A76.46,76.46,0,0,1,1608.16,463a49,49,0,0,1-16.65,13.08A48.29,48.29,0,0,1,1570.73,480.43Z"/></g></g></svg>